<mxfile host="app.diagrams.net" agent="Mozilla/5.0 (X11; Linux x86_64; rv:132.0) Gecko/20100101 Firefox/132.0" version="26.0.14">
  <diagram name="Page-1" id="7tmHGLrwhEvoVYHyx-d5">
    <mxGraphModel dx="1243" dy="643" grid="1" gridSize="10" guides="1" tooltips="1" connect="1" arrows="1" fold="1" page="1" pageScale="1" pageWidth="850" pageHeight="1100" math="0" shadow="0">
      <root>
        <mxCell id="0" />
        <mxCell id="1" parent="0" />
        <mxCell id="IKivwuYoqXGN2xsgCegO-1" value="&lt;font style=&quot;font-size: 32px;&quot;&gt;A&lt;/font&gt;" style="ellipse;whiteSpace=wrap;html=1;aspect=fixed;shadow=1;fillColor=#647687;fontColor=#ffffff;strokeColor=#314354;" vertex="1" parent="1">
          <mxGeometry x="160" y="160" width="80" height="80" as="geometry" />
        </mxCell>
        <mxCell id="IKivwuYoqXGN2xsgCegO-2" value="&lt;font style=&quot;font-size: 32px;&quot;&gt;D&lt;/font&gt;" style="ellipse;whiteSpace=wrap;html=1;aspect=fixed;shadow=1;" vertex="1" parent="1">
          <mxGeometry x="460" y="270" width="80" height="80" as="geometry" />
        </mxCell>
        <mxCell id="IKivwuYoqXGN2xsgCegO-3" value="" style="endArrow=none;html=1;rounded=0;strokeWidth=5;entryX=1.005;entryY=0.66;entryDx=0;entryDy=0;entryPerimeter=0;shadow=1;" edge="1" parent="1" source="IKivwuYoqXGN2xsgCegO-2" target="IKivwuYoqXGN2xsgCegO-1">
          <mxGeometry width="50" height="50" relative="1" as="geometry">
            <mxPoint x="240" y="370" as="sourcePoint" />
            <mxPoint x="290" y="320" as="targetPoint" />
          </mxGeometry>
        </mxCell>
        <mxCell id="IKivwuYoqXGN2xsgCegO-4" value="&lt;font style=&quot;font-size: 32px;&quot;&gt;F&lt;/font&gt;" style="ellipse;whiteSpace=wrap;html=1;aspect=fixed;shadow=1;" vertex="1" parent="1">
          <mxGeometry x="250" y="390" width="80" height="80" as="geometry" />
        </mxCell>
        <mxCell id="IKivwuYoqXGN2xsgCegO-5" value="&lt;font style=&quot;font-size: 32px;&quot;&gt;B&lt;/font&gt;" style="ellipse;whiteSpace=wrap;html=1;aspect=fixed;shadow=1;fillColor=#008a00;fontColor=#ffffff;strokeColor=#005700;" vertex="1" parent="1">
          <mxGeometry x="500" y="620" width="80" height="80" as="geometry" />
        </mxCell>
        <mxCell id="IKivwuYoqXGN2xsgCegO-6" value="&lt;font style=&quot;font-size: 32px;&quot;&gt;E&lt;/font&gt;" style="ellipse;whiteSpace=wrap;html=1;aspect=fixed;shadow=1;" vertex="1" parent="1">
          <mxGeometry x="510" y="430" width="80" height="80" as="geometry" />
        </mxCell>
        <mxCell id="IKivwuYoqXGN2xsgCegO-7" value="" style="ellipse;whiteSpace=wrap;html=1;aspect=fixed;shadow=1;" vertex="1" parent="1">
          <mxGeometry x="720" y="520" width="80" height="80" as="geometry" />
        </mxCell>
        <mxCell id="IKivwuYoqXGN2xsgCegO-8" value="" style="ellipse;whiteSpace=wrap;html=1;aspect=fixed;shadow=1;" vertex="1" parent="1">
          <mxGeometry x="600" y="530" width="80" height="80" as="geometry" />
        </mxCell>
        <mxCell id="IKivwuYoqXGN2xsgCegO-9" value="&lt;font style=&quot;font-size: 32px;&quot;&gt;B&lt;/font&gt;" style="ellipse;whiteSpace=wrap;html=1;aspect=fixed;shadow=1;fillColor=#e51400;fontColor=#ffffff;strokeColor=#B20000;" vertex="1" parent="1">
          <mxGeometry x="750" y="650" width="80" height="80" as="geometry" />
        </mxCell>
        <mxCell id="IKivwuYoqXGN2xsgCegO-10" value="&lt;font style=&quot;font-size: 17px;&quot;&gt;Fake B&lt;br&gt;&lt;/font&gt;" style="text;html=1;align=center;verticalAlign=middle;whiteSpace=wrap;rounded=0;shadow=1;" vertex="1" parent="1">
          <mxGeometry x="760" y="740" width="60" height="30" as="geometry" />
        </mxCell>
        <mxCell id="IKivwuYoqXGN2xsgCegO-11" value="&lt;font style=&quot;font-size: 17px;&quot;&gt;Actual B&lt;/font&gt;" style="text;html=1;align=center;verticalAlign=middle;whiteSpace=wrap;rounded=0;shadow=1;" vertex="1" parent="1">
          <mxGeometry x="500" y="720" width="80" height="30" as="geometry" />
        </mxCell>
        <mxCell id="IKivwuYoqXGN2xsgCegO-12" value="" style="endArrow=none;html=1;rounded=0;strokeWidth=5;exitX=0;exitY=1;exitDx=0;exitDy=0;shadow=1;" edge="1" parent="1" source="IKivwuYoqXGN2xsgCegO-2" target="IKivwuYoqXGN2xsgCegO-4">
          <mxGeometry width="50" height="50" relative="1" as="geometry">
            <mxPoint x="474" y="544" as="sourcePoint" />
            <mxPoint x="350" y="400" as="targetPoint" />
          </mxGeometry>
        </mxCell>
        <mxCell id="IKivwuYoqXGN2xsgCegO-13" value="" style="endArrow=none;html=1;rounded=0;strokeWidth=5;entryX=0.636;entryY=1.005;entryDx=0;entryDy=0;entryPerimeter=0;shadow=1;" edge="1" parent="1" source="IKivwuYoqXGN2xsgCegO-4" target="IKivwuYoqXGN2xsgCegO-1">
          <mxGeometry width="50" height="50" relative="1" as="geometry">
            <mxPoint x="260" y="380" as="sourcePoint" />
            <mxPoint x="230" y="270" as="targetPoint" />
          </mxGeometry>
        </mxCell>
        <mxCell id="IKivwuYoqXGN2xsgCegO-14" value="" style="endArrow=none;html=1;rounded=0;strokeWidth=5;shadow=1;" edge="1" parent="1" source="IKivwuYoqXGN2xsgCegO-6" target="IKivwuYoqXGN2xsgCegO-2">
          <mxGeometry width="50" height="50" relative="1" as="geometry">
            <mxPoint x="574" y="554" as="sourcePoint" />
            <mxPoint x="330" y="500" as="targetPoint" />
          </mxGeometry>
        </mxCell>
        <mxCell id="IKivwuYoqXGN2xsgCegO-15" value="" style="endArrow=none;html=1;rounded=0;strokeWidth=5;entryX=0;entryY=0;entryDx=0;entryDy=0;shadow=1;" edge="1" parent="1" source="IKivwuYoqXGN2xsgCegO-4" target="IKivwuYoqXGN2xsgCegO-5">
          <mxGeometry width="50" height="50" relative="1" as="geometry">
            <mxPoint x="512" y="322" as="sourcePoint" />
            <mxPoint x="268" y="268" as="targetPoint" />
          </mxGeometry>
        </mxCell>
        <mxCell id="IKivwuYoqXGN2xsgCegO-16" value="" style="endArrow=none;html=1;rounded=0;strokeWidth=5;entryX=1;entryY=1;entryDx=0;entryDy=0;exitX=0;exitY=0;exitDx=0;exitDy=0;shadow=1;" edge="1" parent="1" source="IKivwuYoqXGN2xsgCegO-8" target="IKivwuYoqXGN2xsgCegO-6">
          <mxGeometry width="50" height="50" relative="1" as="geometry">
            <mxPoint x="522" y="332" as="sourcePoint" />
            <mxPoint x="278" y="278" as="targetPoint" />
          </mxGeometry>
        </mxCell>
        <mxCell id="IKivwuYoqXGN2xsgCegO-17" value="" style="endArrow=none;html=1;rounded=0;strokeWidth=5;exitX=0.99;exitY=0.707;exitDx=0;exitDy=0;exitPerimeter=0;shadow=1;" edge="1" parent="1" source="IKivwuYoqXGN2xsgCegO-6" target="IKivwuYoqXGN2xsgCegO-7">
          <mxGeometry width="50" height="50" relative="1" as="geometry">
            <mxPoint x="532" y="342" as="sourcePoint" />
            <mxPoint x="288" y="288" as="targetPoint" />
          </mxGeometry>
        </mxCell>
        <mxCell id="IKivwuYoqXGN2xsgCegO-18" value="" style="endArrow=none;html=1;rounded=0;strokeWidth=5;entryX=1.028;entryY=0.598;entryDx=0;entryDy=0;exitX=0.017;exitY=0.68;exitDx=0;exitDy=0;exitPerimeter=0;entryPerimeter=0;shadow=1;" edge="1" parent="1" source="IKivwuYoqXGN2xsgCegO-7" target="IKivwuYoqXGN2xsgCegO-8">
          <mxGeometry width="50" height="50" relative="1" as="geometry">
            <mxPoint x="542" y="352" as="sourcePoint" />
            <mxPoint x="298" y="298" as="targetPoint" />
          </mxGeometry>
        </mxCell>
        <mxCell id="IKivwuYoqXGN2xsgCegO-19" value="" style="endArrow=none;html=1;rounded=0;strokeWidth=5;exitX=0.403;exitY=0.011;exitDx=0;exitDy=0;exitPerimeter=0;shadow=1;" edge="1" parent="1" source="IKivwuYoqXGN2xsgCegO-9" target="IKivwuYoqXGN2xsgCegO-7">
          <mxGeometry width="50" height="50" relative="1" as="geometry">
            <mxPoint x="552" y="362" as="sourcePoint" />
            <mxPoint x="308" y="308" as="targetPoint" />
          </mxGeometry>
        </mxCell>
        <mxCell id="IKivwuYoqXGN2xsgCegO-20" value="" style="endArrow=none;html=1;rounded=0;strokeWidth=5;shadow=1;" edge="1" parent="1" source="IKivwuYoqXGN2xsgCegO-8" target="IKivwuYoqXGN2xsgCegO-5">
          <mxGeometry width="50" height="50" relative="1" as="geometry">
            <mxPoint x="562" y="372" as="sourcePoint" />
            <mxPoint x="318" y="318" as="targetPoint" />
          </mxGeometry>
        </mxCell>
      </root>
    </mxGraphModel>
  </diagram>
</mxfile>
